<svg xmlns="http://www.w3.org/2000/svg" width="19.999" height="19.898" viewBox="0 0 19.999 19.898"><defs><style>.a{fill:#fff;}</style></defs><path class="a" d="M4108.074,2075.087c-1.8-1.555-3.461-3.748-3.461-9.225a5.752,5.752,0,0,0-11.5,0c0,5.482-1.663,7.673-3.462,9.226a2.278,2.278,0,0,0-.785,1.717.654.654,0,0,0,.654.654h6.21a3.2,3.2,0,0,0,6.272,0h6.209a.654.654,0,0,0,.654-.654A2.261,2.261,0,0,0,4108.074,2075.087Zm-9.213,3.613a1.9,1.9,0,0,1-1.778-1.241h3.556A1.9,1.9,0,0,1,4098.861,2078.7Zm-8.433-2.549a.806.806,0,0,1,.076-.074c2.743-2.368,3.913-5.423,3.913-10.215a4.444,4.444,0,0,1,8.887,0c0,4.787,1.171,7.842,3.915,10.216a.794.794,0,0,1,.076.073Z" transform="translate(-4088.861 -2060.111)"/></svg>