<svg xmlns="http://www.w3.org/2000/svg" width="25.687" height="25.687" viewBox="0 0 25.687 25.687"><defs><style>.a{fill:#fff;}</style></defs><g transform="translate(-3184.196 -2315.825)"><path class="a" d="M3197.04,2315.825a12.844,12.844,0,1,0,12.843,12.844A12.858,12.858,0,0,0,3197.04,2315.825Zm0,23.7a10.854,10.854,0,1,1,10.853-10.853A10.866,10.866,0,0,1,3197.04,2339.522Z"/><path class="a" d="M3202.014,2327.584h-3.979V2323.6a.995.995,0,0,0-1.99,0v3.979h-3.979a.995.995,0,0,0,0,1.99h3.979v3.979a.995.995,0,1,0,1.99,0v-3.979h3.979a.995.995,0,1,0,0-1.99Z"/></g></svg>