<svg xmlns="http://www.w3.org/2000/svg" width="30.948" height="27.439" viewBox="0 0 30.948 27.439"><defs><style>.a{fill:#fff;}</style></defs><g transform="translate(-7944.443 -569.084)"><path class="a" d="M7975.025,592.417l-12.738-21.964a2.736,2.736,0,0,0-4.739,0l-12.739,21.968a2.736,2.736,0,0,0,2.37,4.1h25.477a2.736,2.736,0,0,0,2.369-4.106Zm-1.57,1.832a.926.926,0,0,1-.8.461h-25.477a.922.922,0,0,1-.8-1.383l12.739-21.968a.923.923,0,0,1,1.6,0l12.737,21.964A.924.924,0,0,1,7973.455,594.249Z"/><path class="a" d="M7959.917,582.018a.906.906,0,0,0-.906.907v3.626a.906.906,0,1,0,1.813,0v-3.626A.907.907,0,0,0,7959.917,582.018Z"/><circle class="a" cx="0.907" cy="0.907" r="0.907" transform="translate(7959.011 589.271)"/></g></svg>