<svg xmlns="http://www.w3.org/2000/svg" width="26.2" height="29.765" viewBox="0 0 26.2 29.765"><defs><style>.a{fill:#072b3a;}</style></defs><g transform="translate(-5808.227 -545.849)"><path class="a" d="M5830.891,545.849h-16.747a3.545,3.545,0,0,0-3.543,3.543v1.531h-1.666a.709.709,0,0,0,0,1.418h1.659v4.649h-1.659a.708.708,0,0,0,0,1.417h1.659v4.649h-1.659a.708.708,0,0,0,0,1.417h1.659v4.649h-1.659a.709.709,0,0,0,0,1.418h1.659v1.531a3.544,3.544,0,0,0,3.543,3.543h16.746a3.545,3.545,0,0,0,3.544-3.543V549.392A3.537,3.537,0,0,0,5830.891,545.849Zm2.126,26.222a2.134,2.134,0,0,1-2.126,2.126h-16.747a2.134,2.134,0,0,1-2.126-2.126V570.54h1.658a.709.709,0,0,0,0-1.418h-1.658v-4.649h1.658a.708.708,0,1,0,0-1.417h-1.658v-4.649h1.658a.708.708,0,1,0,0-1.417h-1.658v-4.649h1.658a.709.709,0,0,0,0-1.418h-1.658v-1.531a2.134,2.134,0,0,1,2.126-2.126h16.747a2.134,2.134,0,0,1,2.126,2.126Z"/><path class="a" d="M5822.514,560.526a3.437,3.437,0,1,0-3.437-3.437A3.437,3.437,0,0,0,5822.514,560.526Zm0-5.464a2.02,2.02,0,1,1-2.02,2.02A2.02,2.02,0,0,1,5822.514,555.062Z"/><path class="a" d="M5822.514,561.667a5.3,5.3,0,0,0-5.259,5.443.71.71,0,0,0,.709.708h9.1a.709.709,0,0,0,.708-.708A5.294,5.294,0,0,0,5822.514,561.667Zm-3.785,4.734a3.817,3.817,0,0,1,7.569,0Z"/></g></svg>