<svg xmlns="http://www.w3.org/2000/svg" width="32.285" height="18.833" viewBox="0 0 32.285 18.833"><defs><style>.a{fill:#fff;}</style></defs><g transform="translate(-7889.741 -577.001)"><path class="a" d="M7921.906,586.036c-.254-.37-6.364-9.035-16.023-9.035-8.288,0-15.674,8.615-15.984,8.982a.676.676,0,0,0,0,.869c.31.367,7.7,8.982,15.984,8.982s15.673-8.615,15.984-8.982A.671.671,0,0,0,7921.906,586.036Zm-16.023,8.453c-6.644,0-12.962-6.336-14.566-8.071,1.6-1.737,7.912-8.072,14.566-8.072,7.774,0,13.261,6.327,14.6,8.035C7918.937,588.062,7912.584,594.489,7905.883,594.489Z"/><path class="a" d="M7905.883,581.037a5.381,5.381,0,1,0,5.381,5.381A5.386,5.386,0,0,0,7905.883,581.037Zm0,9.416a4.035,4.035,0,1,1,4.036-4.035A4.04,4.04,0,0,1,7905.883,590.453Z"/></g></svg>