<svg xmlns="http://www.w3.org/2000/svg" width="21.919" height="21.81" viewBox="0 0 21.919 21.81"><defs><style>.a{fill:#fff;}</style></defs><g transform="translate(-5725.491 -794.74)"><path class="a" d="M5745.722,808.427a.546.546,0,0,0-.546.546v4.847a1.64,1.64,0,0,1-1.638,1.638H5728.22a1.639,1.639,0,0,1-1.637-1.638V799.594a1.639,1.639,0,0,1,1.637-1.638h4.848a.546.546,0,0,0,0-1.092h-4.848a2.733,2.733,0,0,0-2.729,2.73V813.82a2.733,2.733,0,0,0,2.729,2.73h15.318a2.734,2.734,0,0,0,2.73-2.73v-4.847A.546.546,0,0,0,5745.722,808.427Z"/><path class="a" d="M5746.051,795.46a2.455,2.455,0,0,0-3.474,0l-9.739,9.739a.546.546,0,0,0-.14.24l-1.281,4.624a.546.546,0,0,0,.672.672l4.624-1.281a.545.545,0,0,0,.24-.14l9.739-9.739a2.46,2.46,0,0,0,0-3.475Zm-12.024,10.094,7.971-7.971,2.571,2.57-7.971,7.972Zm-.513,1.03,2.054,2.054-2.841.787Zm12.406-7.781-.579.579-2.571-2.571.579-.579a1.364,1.364,0,0,1,1.93,0l.641.64A1.367,1.367,0,0,1,5745.92,798.8Z"/></g></svg>