<svg xmlns="http://www.w3.org/2000/svg" width="20.45" height="24.673" viewBox="0 0 20.45 24.673"><defs><style>.a{fill:#072b3a;}</style></defs><g transform="translate(-5024.975 -554.96)"><path class="a" d="M5028.268,564a3.293,3.293,0,1,0,3.293,3.292A3.291,3.291,0,0,0,5028.268,564Zm0,5.43a2.138,2.138,0,1,1,2.137-2.138A2.136,2.136,0,0,1,5028.268,569.431Z"/><path class="a" d="M5044.848,564.925h-11.756a.578.578,0,1,0,0,1.155h11.756a.578.578,0,0,0,0-1.155Z"/><path class="a" d="M5039.423,568.507h-6.331a.577.577,0,1,0,0,1.155h6.331a.577.577,0,1,0,0-1.155Z"/><path class="a" d="M5028.268,554.96a3.292,3.292,0,1,0,3.293,3.293A3.291,3.291,0,0,0,5028.268,554.96Zm0,5.424a2.137,2.137,0,1,1,2.137-2.137A2.136,2.136,0,0,1,5028.268,560.384Z"/><path class="a" d="M5044.848,555.855h-11.756a.578.578,0,0,0,0,1.156h11.756a.578.578,0,0,0,0-1.156Z"/><path class="a" d="M5039.423,559.495h-6.331a.578.578,0,1,0,0,1.155h6.331a.578.578,0,1,0,0-1.155Z"/><path class="a" d="M5028.268,573.047a3.293,3.293,0,1,0,3.293,3.293A3.291,3.291,0,0,0,5028.268,573.047Zm0,5.425a2.137,2.137,0,1,1,2.137-2.138A2.136,2.136,0,0,1,5028.268,578.472Z"/><path class="a" d="M5044.848,573.937h-11.756a.577.577,0,1,0,0,1.155h11.756a.577.577,0,0,0,0-1.155Z"/><path class="a" d="M5039.423,577.576h-6.331a.578.578,0,0,0,0,1.156h6.331a.578.578,0,1,0,0-1.156Z"/></g></svg>