<svg xmlns="http://www.w3.org/2000/svg" width="30.583" height="30.582" viewBox="0 0 30.583 30.582"><g transform="translate(-5811.223 -750.775)"><path d="M5841.8,762.466a.856.856,0,0,0-.05-.191.408.408,0,0,0-.051-.078.417.417,0,0,0-.068-.079c-.008-.007-.011-.017-.02-.024l-4.9-3.807v-3.946a1.53,1.53,0,0,0-1.529-1.53h-5.524l-2.212-1.717a1.512,1.512,0,0,0-1.859,0l-2.213,1.717h-5.524a1.53,1.53,0,0,0-1.529,1.53v3.946l-4.9,3.807c-.008.007-.012.017-.02.024a.524.524,0,0,0-.068.079.463.463,0,0,0-.051.078.543.543,0,0,0-.029.088.425.425,0,0,0-.021.1c0,.01-.006.019-.006.03v17.333a1.52,1.52,0,0,0,.3.9s0,.01.007.014l.017.014a1.521,1.521,0,0,0,1.205.6h27.526a1.52,1.52,0,0,0,1.209-.6c0-.005.01-.007.014-.012l.007-.014a1.5,1.5,0,0,0,.3-.9V762.5C5841.806,762.486,5841.8,762.477,5841.8,762.466ZM5826.208,751.9a.49.49,0,0,1,.608,0l1.176.913h-2.956Zm-13.329,28.44,13.329-10.354a.49.49,0,0,1,.608,0l13.333,10.354Zm27.908-.795-13.343-10.363a1.512,1.512,0,0,0-1.859,0l-13.344,10.363v-16.27l8.353,6.486a.51.51,0,1,0,.625-.8l-8.486-6.59,3.586-2.787v3.939a.51.51,0,1,0,1.019,0v-9.175a.51.51,0,0,1,.51-.51h17.332a.509.509,0,0,1,.509.51v9.175a.51.51,0,1,0,1.02,0v-3.939l3.586,2.787-8.5,6.6a.51.51,0,1,0,.625.806l8.368-6.5v16.27Z"/><path d="M5832.631,763.006v-2.039a6.117,6.117,0,1,0-6.117,6.117.509.509,0,1,0,0-1.019,5.1,5.1,0,1,1,5.1-5.1v2.039a1.02,1.02,0,1,1-2.039,0v-2.039a.509.509,0,0,0-1.019,0,2.039,2.039,0,1,1-2.039-2.039.509.509,0,1,0,0-1.019,3.058,3.058,0,1,0,2.061,5.312,2.033,2.033,0,0,0,4.056-.215Z"/></g></svg>