<svg xmlns="http://www.w3.org/2000/svg" width="28.666" height="21.5" viewBox="0 0 28.666 21.5"><defs><style>.a{fill:#fff;}</style></defs><g transform="translate(-7840.891 -574.568)"><path class="a" d="M7867.168,574.568h-23.889a2.391,2.391,0,0,0-2.388,2.389v16.722a2.39,2.39,0,0,0,2.388,2.389h23.889a2.391,2.391,0,0,0,2.389-2.389V576.957A2.392,2.392,0,0,0,7867.168,574.568Zm-23.889,1.2h23.889a1.138,1.138,0,0,1,.248.05c-2.068,1.893-8.926,8.166-11.325,10.329a1.2,1.2,0,0,1-1.734,0c-2.4-2.162-9.258-8.436-11.326-10.328A1.15,1.15,0,0,1,7843.279,575.763Zm-1.194,17.916V576.957a1.148,1.148,0,0,1,.067-.33c1.583,1.449,6.368,5.826,9.471,8.648-3.093,2.656-7.879,7.194-9.475,8.716A1.168,1.168,0,0,1,7842.085,593.679Zm25.083,1.2h-23.889a1.162,1.162,0,0,1-.269-.055c1.649-1.572,6.466-6.135,9.5-8.735.4.36.758.687,1.043.944a2.386,2.386,0,0,0,3.333,0c.285-.257.648-.585,1.044-.945,3.038,2.6,7.854,7.163,9.5,8.735A1.15,1.15,0,0,1,7867.168,594.874Zm1.195-1.2a1.149,1.149,0,0,1-.063.312c-1.6-1.523-6.382-6.06-9.475-8.716,3.1-2.822,7.887-7.2,9.471-8.648a1.165,1.165,0,0,1,.067.33Z"/></g></svg>