<svg xmlns="http://www.w3.org/2000/svg" width="19.217" height="19.217" viewBox="0 0 19.217 19.217"><defs><style>.a{fill:#fff;}</style></defs><g transform="translate(-8092.906 -572.656)"><path class="a" d="M8112.119,580a.3.3,0,0,0-.013-.065.29.29,0,0,0-.018-.055.279.279,0,0,0-.032-.049.382.382,0,0,0-.043-.05c-.005-.005-.007-.011-.013-.015l-3.08-2.392V574.9a.96.96,0,0,0-.961-.961h-3.471l-1.39-1.079a.949.949,0,0,0-1.168,0l-1.39,1.079h-3.471a.961.961,0,0,0-.961.961v2.48l-3.079,2.392c-.006,0-.008.01-.013.015a.275.275,0,0,0-.043.05.281.281,0,0,0-.032.049.259.259,0,0,0-.018.055.285.285,0,0,0-.013.064c0,.007,0,.012,0,.019v10.891a.942.942,0,0,0,.188.565l0,.009.011.009a.954.954,0,0,0,.757.378h17.3a.956.956,0,0,0,.76-.379l.008-.008,0-.009a.948.948,0,0,0,.188-.565v-10.89C8112.123,580.015,8112.119,580.009,8112.119,580Zm-9.8-6.64a.307.307,0,0,1,.382,0l.739.573h-1.858Zm-8.375,17.869,8.375-6.505a.307.307,0,0,1,.382,0l8.377,6.505Zm17.535-.5-8.384-6.512a.952.952,0,0,0-1.168,0l-8.384,6.512V580.51l5.248,4.076a.321.321,0,1,0,.393-.507l-5.332-4.14,2.253-1.751v2.475a.32.32,0,0,0,.64,0V574.9a.32.32,0,0,1,.321-.32h10.89a.319.319,0,0,1,.32.32v5.766a.321.321,0,0,0,.641,0v-2.475l2.253,1.751-5.341,4.148a.32.32,0,1,0,.392.506l5.258-4.083v10.223Z"/><path class="a" d="M8106.357,580.342v-1.281a3.844,3.844,0,1,0-3.843,3.844.321.321,0,0,0,0-.641,3.2,3.2,0,1,1,3.2-3.2v1.281a.64.64,0,1,1-1.281,0v-1.281a.321.321,0,0,0-.641,0,1.281,1.281,0,1,1-1.281-1.281.321.321,0,0,0,0-.641,1.922,1.922,0,1,0,1.295,3.338,1.277,1.277,0,0,0,2.548-.135Z"/></g></svg>