<svg xmlns="http://www.w3.org/2000/svg" width="27.943" height="25.236" viewBox="0 0 27.943 25.236"><defs><style>.a{fill:#fff;}</style></defs><path class="a" d="M8007.877,571.387c-7.706,0-13.973,5.209-13.973,11.61a10.861,10.861,0,0,0,5.039,8.917l-.353,3.718a.9.9,0,0,0,1.413.83l3.541-2.436a16.531,16.531,0,0,0,4.332.581c7.7,0,13.971-5.209,13.971-11.61S8015.581,571.387,8007.877,571.387Zm0,21.411a14.7,14.7,0,0,1-4.233-.625.9.9,0,0,0-.774.122l-2.295,1.58.221-2.327a.9.9,0,0,0-.416-.85,9.219,9.219,0,0,1-4.667-7.7c0-5.405,5.456-9.8,12.164-9.8s12.161,4.4,12.161,9.8S8014.583,592.8,8007.877,592.8Z" transform="translate(-7993.904 -571.387)"/></svg>