<svg xmlns="http://www.w3.org/2000/svg" width="36.535" height="36.534" viewBox="0 0 36.535 36.534"><defs><style>.a{fill:#f72b44;}.b{fill:#fff;}</style></defs><g transform="translate(-1177.662 -742.146)"><g transform="translate(-9476 -168.5)"><rect class="a" width="36.535" height="36.535" transform="translate(10653.662 910.646)"/></g><g transform="translate(-9476 -168.5)"><path class="b" d="M10674.747,925.545a.527.527,0,0,0-.527.527v9.959a.527.527,0,0,0,1.055,0v-9.959A.527.527,0,0,0,10674.747,925.545Z"/><path class="b" d="M10668.529,925.545a.527.527,0,0,0-.527.527v9.959a.527.527,0,1,0,1.054,0v-9.959A.527.527,0,0,0,10668.529,925.545Z"/><path class="b" d="M10664,924.092v12.982a2.911,2.911,0,0,0,.772,2.005,2.6,2.6,0,0,0,1.884.814h9.97a2.593,2.593,0,0,0,1.883-.814,2.907,2.907,0,0,0,.772-2.005V924.092a2.013,2.013,0,0,0-.517-3.958h-2.7v-.659a2.072,2.072,0,0,0-2.088-2.082h-4.679a2.071,2.071,0,0,0-2.086,2.082v.659h-2.7a2.013,2.013,0,0,0-.517,3.958Zm12.626,14.748h-9.97a1.669,1.669,0,0,1-1.6-1.766V924.138h13.174v12.936A1.669,1.669,0,0,1,10676.623,938.84Zm-8.357-19.365a1.017,1.017,0,0,1,1.032-1.028h4.679a1.016,1.016,0,0,1,1.033,1.028v.659h-6.744Zm-3.752,1.712h14.248a.948.948,0,0,1,0,1.9h-14.248a.948.948,0,0,1,0-1.9Z"/><path class="b" d="M10671.638,925.545a.527.527,0,0,0-.526.527v9.959a.527.527,0,1,0,1.054,0v-9.959A.527.527,0,0,0,10671.638,925.545Z"/></g></g></svg>